<svg xmlns="http://www.w3.org/2000/svg" viewBox="0 0 106.36 24" fill="currentColor"><path fill-rule="evenodd" d="M6,0L18,0A6,6 0 0 1 24,6L24,18A6,6 0 0 1 18,24L6,24A6,6 0 0 1 0,18L0,6A6,6 0 0 1 6,0ZM7.5,7.5L16.5,7.5A3,3 0 0 1 19.5,10.5L19.5,16.5A3,3 0 0 1 16.5,19.5L10.5,19.5A3,3 0 0 1 7.5,16.5L7.5,7.5Z"/><g transform="translate(32 20) scale(.16)"><path d="M7.2 0V-100H72.3V-84.8H25.3V-58H68.9V-43H25.3V-15.2H72.6V0ZM99.7 -43.9V0H82.1V-75H99.4V-62.2H100.2Q102.8 -68.5 108.3 -72.3Q113.8 -76 122.2 -76Q130 -76 135.7 -72.7Q141.5 -69.4 144.7 -63.1Q147.9 -56.7 147.9 -47.7V0H130.3V-45Q130.3 -52.5 126.4 -56.7Q122.5 -61 115.6 -61Q111 -61 107.4 -59Q103.8 -57 101.8 -53.2Q99.7 -49.4 99.7 -43.9ZM190.9 1.5Q179.7 1.5 171.6 -3.4Q163.6 -8.4 159.3 -17.1Q155 -25.8 155 -37.2Q155 -48.7 159.3 -57.4Q163.7 -66.1 171.8 -71Q179.8 -76 190.8 -76Q200 -76 207 -72.6Q214 -69.3 218.2 -63.2Q222.4 -57.1 223 -49H206.1Q205.4 -52.6 203.5 -55.5Q201.6 -58.4 198.4 -60.1Q195.3 -61.7 191 -61.7Q185.6 -61.7 181.5 -58.8Q177.4 -55.9 175.2 -50.5Q172.9 -45 172.9 -37.4Q172.9 -29.8 175.1 -24.3Q177.3 -18.7 181.4 -15.7Q185.5 -12.8 191 -12.8Q196.9 -12.8 200.9 -16.2Q205 -19.6 206.1 -25.6H223Q222.4 -17.7 218.3 -11.6Q214.2 -5.4 207.3 -2Q200.3 1.5 190.9 1.5ZM247.5 -100V0H229.8V-100ZM279.3 1.5Q272.2 1.5 266.5 -1.1Q260.7 -3.6 257.5 -8.7Q254.2 -13.7 254.2 -21.1Q254.2 -27.4 256.5 -31.6Q258.9 -35.7 263 -38.2Q267 -40.7 272.1 -42Q277.2 -43.3 282.7 -43.8Q289.3 -44.6 293.4 -45.1Q297.4 -45.7 299.3 -46.9Q301.2 -48.1 301.2 -50.6V-50.9Q301.2 -56.4 297.9 -59.4Q294.7 -62.4 288.5 -62.4Q282 -62.4 278.3 -59.6Q274.5 -56.8 273.1 -52.9L256.6 -55.3Q258.6 -62.1 263.1 -66.7Q267.6 -71.3 274.1 -73.7Q280.6 -76 288.4 -76Q293.8 -76 299.2 -74.7Q304.5 -73.5 309 -70.5Q313.5 -67.6 316.2 -62.6Q318.9 -57.6 318.9 -50.2V0H301.9V-10.4H301.3Q299.7 -7.2 296.8 -4.5Q293.9 -1.8 289.6 -0.1Q285.2 1.5 279.3 1.5ZM283.9 -11.5Q289.2 -11.5 293.1 -13.6Q297 -15.7 299.2 -19.2Q301.3 -22.8 301.3 -26.9V-35.7Q300.4 -35 298.5 -34.5Q296.5 -33.9 294 -33.4Q291.6 -33 289.2 -32.6Q286.8 -32.3 285.1 -32.1Q281.1 -31.5 278 -30.3Q274.9 -29.1 273.1 -26.9Q271.2 -24.8 271.2 -21.3Q271.2 -16.5 274.8 -14Q278.3 -11.5 283.9 -11.5ZM393.5 -75 366.8 0H347.2L320.6 -75H339.4L356.8 -19.2H357.6L374.8 -75ZM428.5 1.5Q417.2 1.5 409 -3.2Q400.8 -8 396.4 -16.7Q392 -25.3 392 -37.1Q392 -48.6 396.4 -57.4Q400.7 -66.1 408.7 -71.1Q416.6 -76 427.3 -76Q434.3 -76 440.5 -73.7Q446.7 -71.5 451.5 -66.9Q456.3 -62.3 459 -55.1Q461.8 -48 461.8 -38.1V-32.6H400.3V-44.5H453L444.7 -41Q444.7 -47.4 442.8 -52.1Q440.8 -56.9 437 -59.5Q433.2 -62.2 427.5 -62.2Q421.7 -62.2 417.7 -59.5Q413.7 -56.8 411.6 -52.3Q409.5 -47.8 409.5 -42.2V-34Q409.5 -27.1 411.9 -22.2Q414.3 -17.4 418.7 -14.8Q423 -12.3 428.7 -12.3Q432.5 -12.3 435.6 -13.4Q438.7 -14.5 441 -16.6Q443.3 -18.8 444.4 -22L460.9 -20.1Q459.4 -13.6 455 -8.7Q450.7 -3.9 443.9 -1.2Q437.2 1.5 428.5 1.5Z"/></g></svg>
